<svg xmlns="http://www.w3.org/2000/svg" xmlns:xlink="http://www.w3.org/1999/xlink"><symbol id="icon-clock" viewBox="0 0 14 14">
<path d="M7 -1.35999e-06C3.14057 -1.35999e-06 0 3.14056 0 7C0 10.8594 3.14057 14 7 14C10.8594 14 14 10.8594 14 7C14 3.14056 10.8594 -1.35999e-06 7 -1.35999e-06ZM7 1.10526C10.2621 1.10526 12.8947 3.7379 12.8947 7C12.8947 10.2621 10.2621 12.8947 7 12.8947C3.73791 12.8947 1.10526 10.2621 1.10526 7C1.10526 3.7379 3.73791 1.10526 7 1.10526ZM7 2.02631C6.6948 2.02631 6.44737 2.27375 6.44737 2.57895V7C6.44737 7.20438 6.55874 7.38218 6.72368 7.47781L10.2352 9.5041C10.4995 9.6567 10.8367 9.56695 10.9893 9.30263C11.1419 9.03831 11.0522 8.70113 10.7878 8.54853L7.55263 6.6834V2.57895C7.55263 2.27375 7.30522 2.02631 7 2.02631Z" fill="white"/>
</symbol><symbol id="icon-gps-location" viewBox="0 0 24 24">
<path d="M12 22C6.48593 22 2 17.5141 2 12.0001C2 6.48599 6.48593 2 12 2C17.5141 2 22 6.48599 22 12.0001C22 17.5141 17.5141 22 12 22ZM12.6802 3.38646V7.51266C12.6802 7.88808 12.3757 8.19259 12 8.19259C11.6243 8.19259 11.3198 7.88815 11.3198 7.51266V3.38646C7.09698 3.71697 3.71734 7.09704 3.38709 11.3201H7.51063C7.88622 11.3201 8.19087 11.6245 8.19087 12C8.19087 12.3755 7.88622 12.6799 7.51063 12.6799H3.38709C3.71734 16.903 7.09698 20.283 11.3198 20.6135V16.4873C11.3198 16.1119 11.6243 15.8074 12 15.8074C12.3757 15.8074 12.6802 16.1119 12.6802 16.4873V20.6135C16.9031 20.283 20.2827 16.903 20.6129 12.6799H16.4894C16.1138 12.6799 15.8091 12.3755 15.8091 12C15.8091 11.6245 16.1137 11.3201 16.4894 11.3201H20.6129C20.2826 7.09697 16.903 3.71697 12.6802 3.38646Z" fill="#F2890F"/>
</symbol><symbol id="icon-location" viewBox="0 0 16 21">
<path d="M7.99989 4.18766C7.31175 4.18445 6.63814 4.38526 6.06441 4.76464C5.49068 5.14403 5.04264 5.68491 4.77708 6.31876C4.51151 6.95261 4.44036 7.6509 4.57264 8.32516C4.70491 8.99943 5.03467 9.61931 5.52013 10.1063C6.00558 10.5933 6.62489 10.9254 7.29957 11.0606C7.97426 11.1958 8.67397 11.1281 9.31005 10.8659C9.94612 10.6037 10.4899 10.1589 10.8726 9.58784C11.2552 9.01678 11.4595 8.34517 11.4595 7.6581C11.4595 6.74048 11.0956 5.8602 10.4472 5.20984C9.79886 4.55947 8.91893 4.19194 7.99989 4.18766ZM7.99989 9.509C7.63257 9.51221 7.27258 9.40639 6.9656 9.20497C6.65862 9.00355 6.41849 8.71561 6.27569 8.3777C6.13289 8.03979 6.09386 7.66713 6.16354 7.30703C6.23323 6.94693 6.40849 6.61562 6.66709 6.35515C6.92569 6.09467 7.25597 5.91678 7.616 5.84404C7.97604 5.7713 8.3496 5.80699 8.68928 5.94659C9.02897 6.08619 9.31945 6.32341 9.52387 6.62813C9.7283 6.93285 9.83744 7.29134 9.83746 7.6581C9.83809 8.14659 9.64528 8.61553 9.30106 8.96268C8.95684 9.30983 8.48913 9.50704 7.99989 9.51131V9.509Z" fill="#F2890F"/>
<path d="M8.00002 -3.08902e-08C3.80814 -3.08902e-08 0.299847 3.35707 0.0125101 7.63496C-0.0959796 9.60486 0.503931 11.5487 1.70409 13.1159L7.3512 20.6745C7.4267 20.7756 7.52477 20.8576 7.63761 20.9141C7.75045 20.9706 7.87494 21 8.00118 21C8.12742 21 8.25191 20.9706 8.36475 20.9141C8.47759 20.8576 8.57566 20.7756 8.65117 20.6745L14.2959 13.1206C15.4959 11.5532 16.0958 9.60946 15.9875 7.63959C15.7002 3.35707 12.1919 -3.08902e-08 8.00002 -3.08902e-08ZM12.996 12.1512L8.00002 18.8236L3.00406 12.1512C2.03779 10.8954 1.55143 9.33682 1.63226 7.75527C1.83386 4.74756 4.27159 1.62648 8.00234 1.62648C11.7331 1.62648 14.1662 4.73599 14.3678 7.74833C14.4503 9.33222 13.9638 10.8935 12.996 12.1512Z" fill="#F2890F"/>
</symbol><symbol id="icon-person" viewBox="0 0 13 16">
<path d="M8.8924 10.1991H9.88084C10.9936 10.1991 12.081 11.0107 11.896 12.0545L11.6945 13.0439C11.4176 14.1957 10.7921 14.8993 9.67933 15H3.33351C2.22072 14.8993 1.62121 14.0222 1.31832 13.0439L1.11681 12.0545C0.871559 11.0418 2.01921 10.1991 3.13199 10.1991H4.09323M3.08666 4.35241C2.85894 4.35241 2.63143 4.54017 2.63143 4.77153V5.60959C2.63143 5.84076 2.83536 6.02889 3.08666 6.02889C3.08666 6.02889 3.7694 7.70482 4.22443 8.3336C4.50635 8.72322 4.90717 9.65849 6.50018 9.65849C8.09318 9.65849 8.4938 8.72322 8.77592 8.3336C9.23115 7.70482 9.9137 6.02889 9.9137 6.02889C10.1648 6.02889 10.3689 5.84076 10.3689 5.60959V4.77153C10.3689 4.54017 10.1648 4.35241 9.9137 4.35241V3.72382C9.9137 2.25718 9.01251 1 6.50018 1C3.99671 1 3.08666 2.25699 3.08666 3.72382V4.35241Z" stroke="white" stroke-miterlimit="10" stroke-linecap="round" stroke-linejoin="round"/>
</symbol><symbol id="icon-puzzle" viewBox="0 0 16 16">
<path d="M10.6382 3.88374L10.6371 3.88544C10.5535 4.02755 10.5777 4.19493 10.6471 4.31761C10.7166 4.44053 10.8479 4.54783 11.015 4.54783H14.2522V7.26258C14.0032 7.16271 13.735 7.09784 13.4457 7.09784C12.1751 7.09784 11.1435 8.12939 11.1435 9.4C11.1435 10.6706 12.1751 11.7022 13.4457 11.7022C13.7357 11.7022 14.0041 11.6334 14.2522 11.5325V14.2522H4.54783V11.015C4.54783 10.849 4.44314 10.7177 4.32164 10.6471C4.20057 10.5768 4.03538 10.5509 3.89335 10.6303L3.89333 10.6302L3.8904 10.632C3.67729 10.7588 3.44019 10.8293 3.17717 10.8293C2.38607 10.8293 1.74783 10.196 1.74783 9.4C1.74783 8.60397 2.38607 7.97067 3.17717 7.97067C3.44189 7.97067 3.67876 8.03656 3.8904 8.16253L3.89037 8.16257L3.89335 8.16424C4.03531 8.24357 4.20029 8.21765 4.32105 8.14839C4.44184 8.07912 4.54783 7.94939 4.54783 7.78504V4.54783H7.78504C7.95206 4.54783 8.08344 4.44053 8.15292 4.31761C8.22226 4.19492 8.24645 4.02755 8.16286 3.88544L8.16287 3.88543L8.16184 3.88374C8.03667 3.67846 7.97067 3.44214 7.97067 3.17717C7.97067 2.38607 8.60397 1.74783 9.4 1.74783C10.196 1.74783 10.8293 2.38607 10.8293 3.17717C10.8293 3.44214 10.7633 3.67846 10.6382 3.88374ZM9.4 0.875C8.12918 0.875 7.09784 1.91227 7.09784 3.17717C7.09784 3.35229 7.12067 3.51686 7.15842 3.675H4.10866C3.99013 3.675 3.88247 3.72954 3.806 3.806C3.72954 3.88247 3.675 3.99013 3.675 4.10866V7.15842C3.51686 7.12067 3.35229 7.09784 3.17717 7.09784C1.91227 7.09784 0.875 8.12918 0.875 9.4C0.875 10.6708 1.91227 11.7022 3.17717 11.7022C3.35229 11.7022 3.51686 11.6793 3.675 11.6416V14.6913C3.675 14.8099 3.72954 14.9175 3.806 14.994C3.88247 15.0705 3.99013 15.125 4.10866 15.125H14.6913C14.8099 15.125 14.9175 15.0705 14.994 14.994C15.0705 14.9175 15.125 14.8099 15.125 14.6913V10.789C15.125 10.6209 15.0266 10.4591 14.8694 10.3884C14.7143 10.3186 14.523 10.3484 14.3975 10.4653C14.1442 10.6929 13.8103 10.8293 13.4457 10.8293C12.6494 10.8293 12.0163 10.1963 12.0163 9.4C12.0163 8.60368 12.6494 7.97067 13.4457 7.97067C13.8115 7.97067 14.1451 8.10245 14.3974 8.32918C14.5224 8.44556 14.7081 8.47623 14.8639 8.40612C15.0164 8.33748 15.125 8.17872 15.125 8.01102V4.10866C15.125 3.99013 15.0705 3.88247 14.994 3.806C14.9175 3.72954 14.8099 3.675 14.6913 3.675H11.6416C11.6793 3.51686 11.7022 3.35229 11.7022 3.17717C11.7022 1.91227 10.6708 0.875 9.4 0.875Z" fill="white" stroke="white" stroke-width="0.25"/>
</symbol><symbol id="icon-quest-adventure" viewBox="0 0 36 30">
<path fill-rule="evenodd" clip-rule="evenodd" d="M35.9414 6.48431C35.8032 6.00477 35.4515 5.73036 35.0825 5.47192C34.6548 5.23283 34.3701 4.86095 33.9003 4.66092C33.6771 4.38312 33.1162 4.21976 32.934 4.05437C32.8437 3.97184 32.8437 4.02415 32.7191 3.95317C32.2943 3.70966 31.9167 3.39382 31.4311 3.24405C30.7561 2.63173 29.9191 2.17291 29.1771 1.62375C28.7383 1.43017 28.338 1.19991 27.9964 0.915658C27.5467 0.695928 27.4222 0.173601 26.8149 0.10432C26.8073 0.0428499 26.7983 -0.0148844 26.7079 0.00345475C26.5625 0.0350389 26.5017 0.147111 26.2785 0.10432C25.471 0.559063 24.9 1.23523 24.1311 1.72462C23.1922 2.29143 22.2548 2.85825 21.3408 3.4468C20.8566 3.70083 20.4995 4.07169 19.9447 4.25712C19.8159 4.50708 19.575 4.65345 19.2996 4.76314C19.0707 4.86571 18.9004 5.28615 18.656 5.06676C17.3071 4.51658 16.2318 3.70695 15.006 3.04198C14.5261 2.58214 13.7118 2.43985 13.1797 2.02891C12.4093 1.81054 11.892 1.3541 10.9258 1.31946C10.2404 1.27972 9.9423 1.60881 9.31519 1.62409C6.60767 3.32318 3.31768 4.47413 0.51369 6.08119C0.367892 6.44967 0.374372 6.96248 0.0831371 7.19478C-0.0608606 8.78349 0.0111383 10.4418 0.0831371 12.0564C0.286174 16.6116 -0.276137 21.8267 0.405332 26.5382C0.466891 27.3244 0.276094 28.349 0.51405 28.9695C0.54213 29.178 0.799525 29.1722 0.942443 29.2731C1.20848 29.1413 1.46299 29.4996 1.47847 29.2731C1.72363 29.5482 1.67179 30.1045 2.33742 29.9829C3.01961 30.0854 3.15965 29.6769 3.51928 29.4752C3.8512 29.248 4.13667 28.979 4.37787 28.6665C5.06258 28.2315 5.57269 27.6331 6.20196 27.1464C6.80639 26.6363 7.39606 26.1116 8.02893 25.6273C8.35148 25.3927 8.69564 25.1767 8.99443 24.9189C9.43002 24.7902 9.61686 24.4241 10.0679 24.31C11.5525 25.0024 12.7974 25.9204 14.255 26.6401C14.9455 27.0344 15.6424 27.4242 16.1864 27.9567C16.6051 28.0688 16.9636 28.2362 17.2595 28.4617C17.5753 28.4363 17.5904 28.6917 17.905 28.6659C17.8557 28.982 18.134 28.9885 18.4396 28.9691C19.2636 28.6642 19.8843 28.1697 20.4815 27.6525C21.1597 27.2133 21.843 26.7779 22.4132 26.2346C23.2516 25.9445 23.635 25.2269 24.4533 24.9189C24.6938 24.6037 25.1751 24.5192 25.4192 24.2088C25.7968 24.0254 26.0416 23.7173 26.4927 23.6015C27.9434 24.4947 28.9511 25.8056 30.251 26.8425C30.6229 27.031 30.746 27.4528 31.2161 27.5512C31.5074 27.8504 31.7129 28.2312 32.1827 28.3616C32.5341 28.6034 32.5434 29.1685 33.149 29.1719C33.5532 29.3638 33.6407 29.8562 34.3301 29.7794C34.7473 29.5889 34.8748 29.2646 34.9741 28.7664C35.0782 28.2447 34.8953 27.6718 34.9741 27.1461C35.1473 26.7695 35.323 26.3945 35.404 25.9306C35.9756 21.4395 35.5865 16.0444 35.8331 11.245C36.0267 10.5638 35.9349 9.64442 35.9414 8.8144C35.945 7.96061 36.0714 7.11429 35.9414 6.48431ZM2.33742 28.3612C2.28234 28.3082 2.41626 28.2315 2.44578 28.2607C2.5005 28.312 2.36802 28.3891 2.33742 28.3612ZM33.6861 11.6502C33.4197 16.1861 33.7206 21.3546 33.4704 26.0318C32.0398 25.4579 31.0023 24.5127 29.7132 23.8033C28.3132 23.2331 27.4837 22.1262 25.9556 21.6766C25.0502 21.8342 24.6185 22.4407 23.9162 22.7899C23.391 23.2735 22.6735 23.5761 22.2001 24.1072C20.8987 24.8724 19.8205 25.8464 18.6563 26.7402C18.2423 26.6594 18.179 26.2454 17.9054 26.0318C17.7099 25.7428 17.2937 25.662 17.1533 25.3234C16.2994 24.9793 15.7375 24.3626 14.7914 24.1076C13.976 23.7285 13.2031 23.3101 12.3211 22.9933C12.0742 22.6876 11.6494 22.547 11.4633 22.1826C11.1278 21.9931 10.8714 21.7282 10.389 21.6769C9.68166 21.6155 9.25111 21.8179 8.88679 22.0818C8.70176 22.4808 8.10633 22.4934 7.92093 22.8924C7.53502 23.1003 7.3417 23.4932 6.95362 23.7024C6.66239 24.0013 6.45755 24.3813 5.98812 24.5127C5.45497 25.1583 4.73282 25.6236 4.26987 26.3347C3.92175 26.5806 3.70756 26.9528 3.4102 27.2463C3.33856 27.482 3.05561 27.5186 2.98325 27.753C2.85725 27.7825 2.67221 28.3273 2.65962 27.8559C2.96993 27.4572 2.53002 26.9009 2.5527 26.437C2.4393 20.1986 2.24094 14.0377 1.90939 8.00442C1.88599 7.67873 2.29134 7.75786 2.44578 7.5996C2.60634 7.48108 2.88461 7.4736 2.98325 7.29531C3.44332 7.15573 3.6892 6.81407 4.16259 6.68774C4.93694 6.26865 5.60329 5.75074 6.41723 5.37139C7.1203 4.88642 8.07717 4.64156 8.77951 4.15558C9.32131 4.09377 9.44658 3.638 10.0683 3.64989C10.4196 3.44137 10.7426 3.205 11.1422 3.04232C12.2297 3.80441 13.467 4.42659 14.5772 5.1683C15.1244 5.56328 15.79 5.84753 16.2951 6.28224C16.9276 6.56242 17.2912 7.09799 18.0126 7.29497C19.0357 7.1795 19.7248 6.74921 20.3738 6.28224C21.0488 5.83802 21.7767 5.44509 22.4143 4.96623C23.8424 4.1875 24.99 3.14149 26.3861 2.33321C26.4653 2.23845 26.5805 2.17868 26.709 2.12944C27.3541 2.63512 27.9089 3.22537 28.7477 3.54767C29.4684 3.98305 30.1772 4.42761 31.003 4.7628C31.3911 5.27392 31.9653 5.61014 32.506 5.97862C32.961 6.39329 33.4337 6.78996 34.009 7.09256C33.9071 8.5641 33.7771 10.0886 33.6861 11.6502ZM27.7811 9.11835C27.1817 8.53625 27.0377 7.52556 26.2788 7.09256C25.6294 7.0878 25.5369 7.60877 25.4192 8.10529C25.4865 8.78417 25.8774 9.15809 26.0628 9.7266C25.4638 9.97011 24.7827 10.1382 23.9158 10.1314C23.639 10.4785 23.0223 10.5033 23.0569 11.1435C23.2192 11.3306 23.2941 11.4702 23.5951 11.5486C23.8795 11.6237 24.3338 11.4923 24.6671 11.5486C25.3364 11.3697 25.9721 11.1591 26.7079 11.0426C27.2177 11.4386 27.4322 12.1131 27.7807 12.6629C28.1803 13.1638 28.2682 13.9589 29.391 13.7768C29.5173 13.5911 29.6721 13.4342 29.8204 13.2708C29.6394 12.1589 28.9122 11.5615 28.5324 10.6374C29.1231 10.5865 29.49 10.3247 30.0361 10.2323C30.539 10.1009 31.0012 9.92731 31.0019 9.3211C30.6438 7.93106 28.8096 9.05315 27.7811 9.11835ZM25.8494 11.4478C25.4116 11.9263 24.2362 12.2031 24.6675 13.1686C25.1801 13.4213 25.4602 12.9278 25.8494 12.7634C26.1586 12.4816 26.6305 12.3532 26.493 11.6498C26.268 11.5918 26.1867 11.3992 25.8494 11.4478ZM11.8931 11.5486C11.2242 11.9501 9.68166 12.4286 10.3887 13.4736C11.0763 13.514 11.3834 13.1947 11.6785 12.866C12.1843 12.7352 12.3939 12.3257 12.5368 11.8526C12.3633 11.7123 12.2733 11.494 11.8931 11.5486ZM14.7914 13.9792C14.7684 13.7327 14.498 13.5225 14.3616 13.372C14.1917 13.1849 14.0491 12.8775 13.7176 12.8663C13.3504 12.8218 13.3946 13.1689 13.1804 13.2712C13.2452 13.8176 13.6412 14.0523 13.8259 14.4863C14.1726 14.8008 14.2745 15.3445 14.8983 15.3978C14.9221 15.3183 14.9883 15.2803 15.1143 15.297C15.493 14.9101 15.1467 14.2489 14.7914 13.9792ZM22.2001 14.5872C22.1328 14.9638 21.7595 15.0507 21.8772 15.5999C21.9974 15.6209 22.0442 15.7116 22.0917 15.8026C22.6062 16.0108 23.0284 15.5476 23.3805 15.2963C23.7657 14.9842 24.1999 14.7196 24.238 14.0811C23.5965 13.3238 22.6868 14.2628 22.2001 14.5872ZM8.56496 14.182C7.98501 14.6486 7.10266 14.8283 7.0609 15.8026C7.47922 16.2686 8.10237 15.7979 8.45768 15.5999C8.72156 15.2087 9.19711 15.0151 9.20899 14.3841C9.01783 14.2948 8.93611 14.1012 8.56496 14.182ZM21.0179 16.2075C20.8166 16.127 20.6258 16.038 20.3731 16.0054C20.3562 16.1226 20.2043 16.1151 20.0517 16.1063C19.6672 16.4428 19.1387 16.776 18.7632 17.0178C18.7265 17.0422 18.6858 17.1849 18.6563 17.2205C18.6275 17.2531 18.4709 17.1866 18.44 17.2205C18.4 17.2687 18.3514 17.4844 18.3345 17.5238C18.2798 17.6539 18.197 17.7238 18.2279 17.929C18.5703 18.6388 19.5653 18.2068 19.9455 17.8284C20.3314 17.3492 21.163 17.2888 21.1244 16.4105C21.0416 16.3875 21.001 16.3256 21.0179 16.2075ZM5.02154 17.5238C5.23537 17.6257 5.19181 17.9718 5.55865 17.929C6.144 17.7398 6.61091 17.4375 6.63215 16.7138C5.9892 16.2 5.01686 16.7865 5.02154 17.5238ZM15.866 16.5114H15.6507C15.5272 16.6313 15.5287 16.87 15.5427 17.1186C15.8775 17.626 16.4942 18.5572 17.2599 18.0298C17.3938 17.4311 17.0255 17.3071 16.8308 17.0181C16.4611 16.8948 16.4719 16.4112 15.866 16.5114Z" fill="white"/>
</symbol><symbol id="icon-quest-all-quests" viewBox="0 0 26 30">
<path d="M23.0455 0H13.591C11.31 0 9.45459 1.96248 9.45459 4.37502V18.125C9.45459 18.47 9.71934 18.7501 10.0455 18.7501C10.3717 18.7501 10.6364 18.47 10.6364 18.125V4.37502C10.6364 2.65254 11.9624 1.25004 13.591 1.25004H20.683C20.3119 1.77252 20.0909 2.42127 20.0909 3.12504V21.25H15.9546C15.6284 21.25 15.3636 21.53 15.3636 21.875C15.3636 22.22 15.6284 22.5 15.9546 22.5H20.6818C21.008 22.5 21.2727 22.22 21.2727 21.875V3.12504C21.2727 2.09127 22.0681 1.25004 23.0455 1.25004C23.3716 1.25004 23.6364 0.970019 23.6364 0.625019C23.6364 0.280019 23.3716 0 23.0455 0Z" fill="white"/>
<path d="M18.3182 17.5H7.68183C5.40094 17.5 3.54545 19.4625 3.54545 21.875V25.625C3.54545 27.3475 2.21945 28.75 0.590927 28.75C0.264745 28.75 0 29.03 0 29.375C0 29.72 0.264745 30 0.590927 30H12.4091C14.69 30 16.5455 28.0375 16.5455 25.625V20.625C16.5455 19.5912 17.3408 18.75 18.3182 18.75C18.6444 18.75 18.9091 18.47 18.9091 18.125C18.9091 17.78 18.6444 17.5 18.3182 17.5ZM15.3637 20.625V25.625C15.3637 27.3474 14.0377 28.7499 12.4091 28.7499H3.48285C4.25105 27.9549 4.7273 26.8487 4.7273 25.625V21.875C4.7273 20.1525 6.0533 18.75 7.68183 18.75H15.9557C15.5846 19.2725 15.3637 19.9212 15.3637 20.625Z" fill="white"/>
<path d="M18.3181 17.5H17.1363C16.8102 17.5 16.5454 17.78 16.5454 18.125C16.5454 18.47 16.8102 18.75 17.1363 18.75H18.3181C19.2955 18.75 20.0909 19.5912 20.0909 20.625V21.875C20.0909 22.22 20.3556 22.5 20.6818 22.5C21.008 22.5 21.2727 22.22 21.2727 21.875V20.625C21.2727 18.9025 19.9467 17.5 18.3181 17.5Z" fill="white"/>
<path d="M23.0453 0C22.7192 0 22.4544 0.280019 22.4544 0.625019C22.4544 0.970019 22.7192 1.25004 23.0453 1.25004C24.0227 1.25004 24.8181 2.09127 24.8181 3.12504V3.75H20.6817C20.3556 3.75 20.0908 4.03002 20.0908 4.37502C20.0908 4.72002 20.3556 5.00004 20.6817 5.00004H25.409C25.7352 5.00004 25.9999 4.72002 25.9999 4.37502V3.12498C25.9999 1.4025 24.6739 0 23.0453 0Z" fill="white"/>
<path d="M18.3184 3.75H12.4093C12.0831 3.75 11.8184 4.03002 11.8184 4.37502C11.8184 4.72002 12.0831 5.00004 12.4093 5.00004H18.3184C18.6446 5.00004 18.9093 4.72002 18.9093 4.37502C18.9093 4.03002 18.6446 3.75 18.3184 3.75Z" fill="white"/>
<path d="M18.3184 7.5H12.4093C12.0831 7.5 11.8184 7.78002 11.8184 8.12502C11.8184 8.47002 12.0831 8.75004 12.4093 8.75004H18.3184C18.6446 8.75004 18.9093 8.47002 18.9093 8.12502C18.9093 7.78002 18.6446 7.5 18.3184 7.5Z" fill="white"/>
<path d="M18.3184 11.25H12.4093C12.0831 11.25 11.8184 11.53 11.8184 11.875C11.8184 12.22 12.0831 12.5 12.4093 12.5H18.3184C18.6446 12.5 18.9093 12.22 18.9093 11.875C18.9093 11.53 18.6446 11.25 18.3184 11.25Z" fill="white"/>
<path d="M18.3184 15H12.4093C12.0831 15 11.8184 15.28 11.8184 15.625C11.8184 15.97 12.0831 16.25 12.4093 16.25H18.3184C18.6446 16.25 18.9093 15.97 18.9093 15.625C18.9093 15.28 18.6446 15 18.3184 15Z" fill="white"/>
<path d="M13.591 21.25H6.50011C6.17393 21.25 5.90918 21.53 5.90918 21.875C5.90918 22.22 6.17393 22.5 6.50011 22.5H13.591C13.9172 22.5 14.1819 22.22 14.1819 21.875C14.1819 21.53 13.9172 21.25 13.591 21.25Z" fill="white"/>
<path d="M13.591 25H6.50011C6.17393 25 5.90918 25.28 5.90918 25.625C5.90918 25.97 6.17393 26.25 6.50011 26.25H13.591C13.9172 26.25 14.1819 25.97 14.1819 25.625C14.1819 25.28 13.9172 25 13.591 25Z" fill="white"/>
</symbol><symbol id="icon-quest-detective" viewBox="0 0 40 30">
<path d="M39.0228 9.74601L38.3731 8.34006H36.7972H26.2387H24.7957L24.0993 9.57759C23.9157 9.90378 23.4611 10.9026 23.1674 13.1618C22.8618 12.7642 22.5463 12.3414 22.2233 11.9082C20.3037 9.33514 18.128 6.41889 15.1252 4.64186C13.5587 3.71467 11.5106 2.92847 9.50636 2.48481C8.50711 2.26357 6.93846 2 5.13979 2H3.74784C1.68131 2 0 3.64635 0 5.66991C0 7.69348 1.68131 9.33983 3.74784 9.33983H5.23845C7.44583 9.33983 8.8243 9.92346 10.5059 11.5701C11.9021 12.9372 13.049 14.797 14.2632 16.766C16.283 20.0411 18.5722 23.7533 22.66 26.0883C24.8808 27.3568 27.1702 28 29.4642 28C31.0702 28 32.6687 27.6826 34.2154 27.0566C36.1485 26.2742 37.704 24.8937 38.7137 23.0643C39.5552 21.5398 40 19.7467 40 17.8787C40.0001 12.2948 39.2521 10.2421 39.0228 9.74601ZM12.9138 10.5942C12.6938 10.3473 12.4675 10.1081 12.2331 9.87856C10.0718 7.76223 8.06855 6.94774 5.23836 6.94774H3.74784C3.02715 6.94774 2.44288 6.37562 2.44288 5.66991C2.44288 4.96421 3.02715 4.39209 3.74784 4.39209H5.13979C6.82832 4.39209 8.28178 4.66623 8.96767 4.81803C10.9046 5.24678 12.6878 5.9944 13.8617 6.68919C14.4735 7.05133 15.0541 7.48093 15.6077 7.95637L12.9138 10.5942ZM33.2822 24.8459C32.0634 25.3392 30.786 25.6079 29.4642 25.6079C27.6755 25.6079 25.8056 25.1157 23.8908 24.022C19.181 21.3317 17.1423 16.4093 14.4118 12.5103L17.3297 9.65307C20.5986 13.2716 22.8952 17.9318 25.343 17.9318C25.343 12.3237 26.2387 10.7321 26.2387 10.7321H36.7972C36.7972 10.7321 37.5572 12.377 37.5572 17.8786C37.5572 20.62 36.3358 23.61 33.2822 24.8459Z" fill="white"/>
</symbol><symbol id="icon-quest-horror" viewBox="0 0 30 30">
<path d="M29.1211 7.08984C28.6357 7.08984 28.2422 7.48336 28.2422 7.96875V8.84766H26.4258V4.39453C26.4258 1.97139 24.4544 0 22.0312 0H7.96875C5.54561 0 3.57422 1.97139 3.57422 4.39453V8.84766H1.75781V7.96875C1.75781 7.48336 1.3643 7.08984 0.878906 7.08984C0.393516 7.08984 0 7.48336 0 7.96875C0 8.27771 0 14.6916 0 15C0 15.4854 0.393516 15.8789 0.878906 15.8789C1.3643 15.8789 1.75781 15.4854 1.75781 15V14.1211H3.57422C3.57422 14.5291 3.57422 18.1166 3.57422 18.5156C3.57422 24.8481 8.69982 30 15 30C21.3002 30 26.4258 24.8481 26.4258 18.5156V14.1211H28.2422V15C28.2422 15.4854 28.6357 15.8789 29.1211 15.8789C29.6065 15.8789 30 15.4854 30 15C30 14.691 30 8.27713 30 7.96875C30 7.48336 29.6065 7.08984 29.1211 7.08984ZM3.57422 12.3633H1.75781C1.75781 11.7272 1.75781 11.2416 1.75781 10.6055H3.57422V12.3633ZM24.668 18.5156C24.668 23.8788 20.3309 28.2422 15 28.2422C9.66908 28.2422 5.33203 23.8789 5.33203 18.5156C5.33203 18.4384 5.33203 9.07582 5.33203 8.69643C5.60713 8.79398 5.90285 8.8476 6.21094 8.8476C6.88576 8.8476 7.50187 8.59248 7.96875 8.17406C8.43563 8.59254 9.05174 8.8476 9.72656 8.8476C10.4014 8.8476 11.0175 8.59248 11.4844 8.17406C11.9513 8.59254 12.5674 8.8476 13.2422 8.8476C13.917 8.8476 14.5331 8.59248 15 8.17406C15.4669 8.59254 16.083 8.8476 16.7578 8.8476C17.4326 8.8476 18.0487 8.59248 18.5156 8.17406C18.9825 8.59254 19.5986 8.8476 20.2734 8.8476C20.9483 8.8476 21.5644 8.59248 22.0312 8.17406C22.4981 8.59254 23.1142 8.8476 23.7891 8.8476C24.0971 8.8476 24.3929 8.79398 24.668 8.69643V18.5156ZM24.668 6.21094C24.668 6.69557 24.2737 7.08984 23.7891 7.08984C23.3044 7.08984 22.9102 6.69557 22.9102 6.21094C22.9102 5.72555 22.5166 5.33203 22.0312 5.33203C21.5459 5.33203 21.1523 5.72555 21.1523 6.21094C21.1523 6.69557 20.7581 7.08984 20.2734 7.08984C19.7888 7.08984 19.3945 6.69557 19.3945 6.21094C19.3945 5.72555 19.001 5.33203 18.5156 5.33203C18.0302 5.33203 17.6367 5.72555 17.6367 6.21094C17.6367 6.69557 17.2424 7.08984 16.7578 7.08984C16.2732 7.08984 15.8789 6.69557 15.8789 6.21094C15.8789 5.72555 15.4854 5.33203 15 5.33203C14.5146 5.33203 14.1211 5.72555 14.1211 6.21094C14.1211 6.69557 13.7268 7.08984 13.2422 7.08984C12.7576 7.08984 12.3633 6.69557 12.3633 6.21094C12.3633 5.72555 11.9698 5.33203 11.4844 5.33203C10.999 5.33203 10.6055 5.72555 10.6055 6.21094C10.6055 6.69557 10.2112 7.08984 9.72656 7.08984C9.24193 7.08984 8.84766 6.69557 8.84766 6.21094C8.84766 5.72555 8.45414 5.33203 7.96875 5.33203C7.48336 5.33203 7.08984 5.72555 7.08984 6.21094C7.08984 6.69557 6.69557 7.08984 6.21094 7.08984C5.72631 7.08984 5.33203 6.69557 5.33203 6.21094V4.39453C5.33203 2.94064 6.51486 1.75781 7.96875 1.75781H22.0312C23.4851 1.75781 24.668 2.94064 24.668 4.39453V6.21094ZM28.2422 12.3633H26.4258V10.6055H28.2422C28.2422 11.2416 28.2422 11.7272 28.2422 12.3633Z" fill="white"/>
<path d="M22.9102 11.4844C22.9102 10.999 22.5166 10.6055 22.0312 10.6055C21.5459 10.6055 21.1523 10.999 21.1523 11.4844C21.1523 11.9691 20.7581 12.3633 20.2734 12.3633H17.4859C17.2512 12.3633 17.0304 12.2719 16.8645 12.1059C15.8364 11.0779 14.1636 11.0779 13.1355 12.1059C12.9696 12.2719 12.7488 12.3633 12.5141 12.3633H9.72656C9.24193 12.3633 8.84766 11.969 8.84766 11.4844C8.84766 10.999 8.45414 10.6055 7.96875 10.6055C7.48336 10.6055 7.08984 10.999 7.08984 11.4844C7.08984 11.9233 7.19824 12.3372 7.38879 12.7016C7.19238 13.1461 7.08984 13.6276 7.08984 14.1212C7.08984 16.0597 8.66695 17.6368 10.6055 17.6368C12.544 17.6368 14.1211 16.0597 14.1211 14.1212C14.1211 13.9469 14.108 13.7745 14.0829 13.6042C14.1867 13.5271 14.2854 13.4419 14.3785 13.3489C14.7212 13.0062 15.2788 13.0062 15.6214 13.3489C15.7145 13.4419 15.8133 13.5272 15.9171 13.6043C15.892 13.7745 15.8789 13.9469 15.8789 14.1212C15.8789 16.0597 17.456 17.6368 19.3945 17.6368C21.333 17.6368 22.9102 16.0597 22.9102 14.1212C22.9102 13.6276 22.8076 13.1461 22.6112 12.7017C22.8018 12.3373 22.9102 11.9234 22.9102 11.4844ZM10.6055 15.879C9.63621 15.879 8.84766 15.0904 8.84766 14.1212C8.84766 14.0712 8.85029 14.0216 8.85445 13.9723C9.12762 14.0683 9.421 14.1153 9.72656 14.1153H12.3633C12.3633 15.0845 11.5747 15.879 10.6055 15.879ZM19.3945 15.879C18.4253 15.879 17.6367 15.0904 17.6367 14.1212H20.2734C20.579 14.1212 20.8724 14.0683 21.1455 13.9723C21.1497 14.0216 21.1523 14.0712 21.1523 14.1212C21.1523 15.0904 20.3638 15.879 19.3945 15.879Z" fill="white"/>
<path d="M16.7578 17.6367C16.2724 17.6367 15.8789 18.0302 15.8789 18.5156V19.3945H14.1211V18.5156C14.1211 18.0302 13.7276 17.6367 13.2422 17.6367C12.7568 17.6367 12.3633 18.0302 12.3633 18.5156V20.2734C12.3633 20.7588 12.7568 21.1523 13.2422 21.1523H16.7578C17.2432 21.1523 17.6367 20.7588 17.6367 20.2734V18.5156C17.6367 18.0302 17.2432 17.6367 16.7578 17.6367Z" fill="white"/>
<path d="M18.5156 22.9688H11.4844C10.999 22.9688 10.6055 23.3623 10.6055 23.8477C10.6055 24.333 10.999 24.7266 11.4844 24.7266H18.5156C19.001 24.7266 19.3945 24.333 19.3945 23.8477C19.3945 23.3623 19.001 22.9688 18.5156 22.9688Z" fill="white"/>
</symbol><symbol id="icon-quest-mysticism" viewBox="0 0 30 30">
<path d="M18.5156 7.08984C17.0617 7.08984 15.8789 8.27268 15.8789 9.72656C15.8789 11.1804 17.0617 12.3633 18.5156 12.3633C19.9695 12.3633 21.1523 11.1804 21.1523 9.72656C21.1523 8.27268 19.9695 7.08984 18.5156 7.08984ZM18.5156 10.6055C18.031 10.6055 17.6367 10.2112 17.6367 9.72656C17.6367 9.24193 18.031 8.84766 18.5156 8.84766C19.0003 8.84766 19.3945 9.24193 19.3945 9.72656C19.3945 10.2112 19.0003 10.6055 18.5156 10.6055Z" fill="white"/>
<path d="M11.4844 7.08984C10.0305 7.08984 8.84766 8.27268 8.84766 9.72656C8.84766 11.1804 10.0305 12.3633 11.4844 12.3633C12.9383 12.3633 14.1211 11.1804 14.1211 9.72656C14.1211 8.27268 12.9383 7.08984 11.4844 7.08984ZM11.4844 10.6055C10.9997 10.6055 10.6055 10.2112 10.6055 9.72656C10.6055 9.24193 10.9997 8.84766 11.4844 8.84766C11.969 8.84766 12.3633 9.24193 12.3633 9.72656C12.3633 10.2112 11.969 10.6055 11.4844 10.6055Z" fill="white"/>
<path d="M27.3633 14.1211H24.668V9.72656C24.668 4.3633 20.3309 0 15 0C9.66908 0 5.33203 4.3633 5.33203 9.72656V14.1211H2.63672C1.18283 14.1211 0 15.3039 0 16.7578V18.5156C0 19.9695 1.18283 21.1523 2.63672 21.1523C3.33721 21.1523 4.00477 20.883 4.51635 20.3939C4.71152 20.2073 4.87418 19.998 5.00156 19.7725L5.22891 19.8862L3.58822 28.9648C3.54187 29.2211 3.6116 29.4847 3.77865 29.6846C3.94564 29.8845 4.19268 30 4.45312 30H25.5469C25.8073 30 26.0544 29.8845 26.2213 29.6846C26.3884 29.4847 26.4581 29.2211 26.4118 28.9648L24.7711 19.8862L24.9984 19.7725C25.4464 20.5658 26.3276 21.1523 27.3633 21.1523C28.8172 21.1523 30 19.9695 30 18.5156V16.7578C30 15.3039 28.8172 14.1211 27.3633 14.1211ZM28.2422 18.5156C28.2422 19.0003 27.8479 19.3945 27.3633 19.3945C26.8639 19.3945 26.4258 18.9838 26.4258 18.5156C26.4258 18.211 26.2681 17.9281 26.0089 17.768C25.7498 17.6079 25.4262 17.5932 25.1538 17.7295C24.6142 17.9993 22.1576 19.2276 21.6382 19.4873C21.204 19.7044 21.0281 20.2323 21.2452 20.6665C21.4622 21.1007 21.9901 21.2766 22.4243 21.0595L23.1328 20.7053L24.4949 28.2422H21.1523V25.5469C21.1523 25.0615 20.7588 24.668 20.2734 24.668C19.788 24.668 19.3945 25.0615 19.3945 25.5469V28.2422H15.8789V23.7891C15.8789 23.3037 15.4854 22.9102 15 22.9102C14.5146 22.9102 14.1211 23.3037 14.1211 23.7891V28.2422H10.6055V25.5469C10.6055 25.0615 10.212 24.668 9.72656 24.668C9.24117 24.668 8.84766 25.0615 8.84766 25.5469V28.2422H5.50512L6.86719 20.7053L7.5757 21.0596C8.01006 21.2767 8.53787 21.1005 8.75484 20.6665C8.97193 20.2324 8.79598 19.7044 8.3618 19.4873C7.84154 19.2272 5.38477 17.9988 4.84617 17.7295C4.57365 17.5932 4.25004 17.6079 3.99105 17.768C3.73189 17.9281 3.57422 18.211 3.57422 18.5156C3.57422 18.9838 3.13611 19.3945 2.63672 19.3945C2.15209 19.3945 1.75781 19.0003 1.75781 18.5156V16.7578C1.75781 16.2732 2.15209 15.8789 2.63672 15.8789H7.96875C8.45414 15.8789 8.84766 15.4854 8.84766 15C8.84766 14.5146 8.45414 14.1211 7.96875 14.1211H7.08984V9.72656C7.08984 5.33256 10.6383 1.75781 15 1.75781C19.3617 1.75781 22.9102 5.33256 22.9102 9.72656V14.1211H22.0312C21.5459 14.1211 21.1523 14.5146 21.1523 15C21.1523 15.4854 21.5459 15.8789 22.0312 15.8789H27.3633C27.8479 15.8789 28.2422 16.2732 28.2422 16.7578V18.5156Z" fill="white"/>
<path d="M15 12.3633C13.5461 12.3633 12.3633 13.5461 12.3633 15V16.7578C12.3633 18.2117 13.5461 19.3945 15 19.3945C16.4539 19.3945 17.6367 18.2117 17.6367 16.7578V15C17.6367 13.5461 16.4539 12.3633 15 12.3633ZM15.8789 16.7578C15.8789 17.2424 15.4846 17.6367 15 17.6367C14.5154 17.6367 14.1211 17.2424 14.1211 16.7578V15C14.1211 14.5154 14.5154 14.1211 15 14.1211C15.4846 14.1211 15.8789 14.5154 15.8789 15V16.7578Z" fill="white"/>
</symbol><symbol id="icon-quest-scifi" viewBox="0 0 28 30">
<path d="M14 8.07756e-06C13.0654 8.07756e-06 12.185 0.379865 11.4231 0.98215C11.0776 0.817829 10.6944 0.714293 10.2855 0.714293C8.85829 0.714293 7.68537 1.84204 7.68537 3.21429C7.68537 3.98047 8.05417 4.67393 8.6256 5.13393C8.55042 5.32101 8.47573 5.50822 8.40505 5.70315C7.40219 5.5219 6.45274 5.41872 5.57275 5.41293C3.30164 5.39793 1.38862 6.00108 0.488547 7.5C-0.0655475 8.42275 -0.121963 9.53118 0.186744 10.6473C0.495452 11.7635 1.147 12.9219 2.0672 14.096C2.30329 14.3972 2.56201 14.6976 2.83332 15C2.56195 15.3028 2.30333 15.6027 2.0672 15.904C1.147 17.0781 0.495452 18.2254 0.186744 19.3415C-0.107124 20.404 -0.0633039 21.4701 0.4189 22.3661C0.316265 22.6336 0.256391 22.9141 0.256391 23.2143C0.256391 24.5865 1.42931 25.7143 2.85653 25.7143C3.76739 25.7143 4.57388 25.2538 5.03879 24.5647C6.06595 24.607 7.19695 24.5139 8.40505 24.2969C8.54232 24.6751 8.69223 25.0312 8.84615 25.3795C9.44411 26.7322 10.1654 27.846 11.0168 28.6607C11.8682 29.4754 12.892 30 14 30C15.108 30 16.1318 29.4754 16.9832 28.6607C17.8346 27.846 18.5559 26.7322 19.1539 25.3795C19.3078 25.0312 19.4577 24.6751 19.5949 24.2969C19.9917 24.3688 20.3766 24.4306 20.7557 24.4754C21.0132 25.5939 22.0498 26.4397 23.2862 26.4397C24.7134 26.4397 25.8864 25.312 25.8864 23.9397C25.8864 23.9358 25.8864 23.9326 25.8864 23.9287C26.5658 23.5958 27.1386 23.121 27.5115 22.5001C28.0655 21.5773 28.122 20.4578 27.8133 19.3416C27.5045 18.2254 26.853 17.0782 25.9328 15.9041C25.6967 15.6028 25.438 15.3028 25.1667 15.0001C25.438 14.6977 25.6967 14.3973 25.9328 14.0961C26.853 12.922 27.5045 11.7635 27.8133 10.6474C28.122 9.53125 28.0655 8.42282 27.5115 7.50007C26.6114 6.00114 24.6984 5.39814 22.4272 5.413C21.5473 5.41871 20.5978 5.52197 19.5949 5.70322C19.4577 5.32468 19.3078 4.95764 19.1539 4.60942C18.5559 3.25664 17.8346 2.14286 16.9832 1.32822C16.1318 0.51347 15.108 8.07756e-06 14 8.07756e-06ZM14 1.42858C14.6357 1.42858 15.2789 1.71265 15.9385 2.34376C16.5981 2.97486 17.2394 3.94615 17.7841 5.17858C17.9014 5.44383 18.013 5.7274 18.1208 6.01565C16.8001 6.34658 15.4175 6.81743 14 7.41072C12.5825 6.81743 11.1999 6.34658 9.87924 6.01565C9.91945 5.90812 9.96536 5.80751 10.0069 5.70315C10.0977 5.71244 10.1923 5.71423 10.2855 5.71423C11.7127 5.71423 12.8857 4.58648 12.8857 3.21423C12.8857 2.75823 12.7628 2.33383 12.5374 1.96423C13.0327 1.6058 13.518 1.42851 14 1.42851V1.42858ZM10.2855 2.14286C10.9097 2.14286 11.3999 2.61411 11.3999 3.21429C11.3999 3.81447 10.9097 4.28572 10.2855 4.28572C9.66128 4.28572 9.17116 3.81447 9.17116 3.21429C9.17116 2.61411 9.66128 2.14286 10.2855 2.14286ZM5.57275 6.8415C6.30122 6.84614 7.11054 6.92461 7.97556 7.0759C7.61535 8.34015 7.33661 9.72882 7.16302 11.2054C5.92162 12.0883 4.81293 13.0079 3.8548 13.9397C3.64828 13.7052 3.4438 13.4675 3.26281 13.2366C2.42442 12.1669 1.86524 11.1436 1.62611 10.279C1.38698 9.41439 1.44763 8.7435 1.7654 8.21429C2.28212 7.35379 3.57929 6.82843 5.57275 6.8415ZM22.4272 6.8415C24.4207 6.82864 25.7179 7.35379 26.2346 8.21429C26.5524 8.7435 26.613 9.41439 26.3739 10.279C26.1348 11.1436 25.5756 12.1669 24.7372 13.2366C24.5562 13.4675 24.3517 13.7052 24.1452 13.9397C23.1851 13.006 22.0698 12.0899 20.8254 11.2054C20.6516 9.73036 20.3841 8.33911 20.0244 7.0759C20.8895 6.92461 21.6988 6.84629 22.4272 6.8415ZM9.43814 7.39958C10.3109 7.61719 11.2258 7.89183 12.166 8.23661C11.6011 8.51265 11.0376 8.80389 10.4712 9.11829C9.90043 9.43518 9.35795 9.77629 8.82293 10.1116C8.9822 9.14797 9.19588 8.24154 9.43814 7.39958ZM18.5735 7.39958C18.8144 8.23715 19.0183 9.14264 19.1771 10.1004C18.6437 9.76632 18.0977 9.43411 17.5288 9.11829C16.9624 8.80389 16.3989 8.51265 15.834 8.23661C16.778 7.8904 17.6975 7.61754 18.5735 7.39958ZM14 8.98436C14.9198 9.38936 15.8549 9.84036 16.7859 10.3571C17.7177 10.8744 18.5955 11.423 19.4208 11.9866C19.5157 12.9586 19.5717 13.9618 19.5717 15C19.5717 16.0342 19.515 17.0448 19.4208 18.0134C18.5953 18.5761 17.718 19.1143 16.7859 19.6317C15.8515 20.1504 14.9118 20.6101 13.9884 21.0156C13.072 20.6105 12.1421 20.1468 11.2141 19.6317C10.282 19.1143 9.40471 18.5761 8.57917 18.0134C8.48498 17.0448 8.42827 16.0342 8.42827 15C8.42827 13.9666 8.48517 12.9659 8.57917 11.9978C9.40611 11.4327 10.2802 10.8756 11.2141 10.3571C12.1451 9.84036 13.0802 9.38936 14 8.98436ZM14 12.5C12.5728 12.5 11.3999 13.6277 11.3999 15C11.3999 16.3722 12.5728 17.5 14 17.5C15.4272 17.5 16.6001 16.3722 16.6001 15C16.6001 13.6277 15.4272 12.5 14 12.5ZM7.00051 13.1473C6.96675 13.7577 6.94247 14.3692 6.94247 15C6.94247 15.6273 6.96699 16.246 7.00051 16.8527C6.21757 16.242 5.4984 15.619 4.86468 15C5.49903 14.3791 6.21665 13.7601 7.00051 13.1473ZM20.9995 13.1473C21.7833 13.7601 22.501 14.3791 23.1353 15C22.5016 15.619 21.7824 16.242 20.9995 16.8527C21.033 16.246 21.0575 15.6273 21.0575 15C21.0575 14.3689 21.0334 13.7581 20.9995 13.1473ZM3.8548 16.0714C4.81372 17.0021 5.93209 17.9131 7.17463 18.7946C7.34776 20.2642 7.60573 21.6538 7.96395 22.9129C7.05243 23.0727 6.21371 23.1488 5.45668 23.1473C5.41771 21.8069 4.25948 20.7143 2.85653 20.7143C2.3687 20.7143 1.91337 20.8544 1.52164 21.0826C1.45732 20.6876 1.48199 20.2309 1.62611 19.7098C1.86524 18.8452 2.42442 17.8331 3.26281 16.7634C3.44357 16.5328 3.64859 16.3059 3.8548 16.0714ZM24.1452 16.0714C24.3514 16.3059 24.5564 16.5328 24.7372 16.7634C25.5756 17.8331 26.1348 18.8452 26.3739 19.7098C26.613 20.5744 26.5524 21.2565 26.2346 21.7857C26.0546 22.0854 25.7942 22.34 25.4337 22.5446C24.9635 21.8862 24.1726 21.4397 23.2862 21.4397C22.1843 21.4397 21.2361 22.12 20.8602 23.058C20.587 23.0241 20.311 22.9743 20.0244 22.9241C20.3845 21.6614 20.6516 20.2693 20.8254 18.7946C22.0679 17.9131 23.1863 17.0021 24.1452 16.0714ZM8.82293 19.8996C9.35629 20.2332 9.90234 20.5547 10.4712 20.8705C11.0375 21.1849 11.6011 21.4875 12.166 21.7634C11.2225 22.1086 10.3017 22.3827 9.42653 22.6004C9.18543 21.762 8.98172 20.8584 8.82293 19.8996ZM19.1771 19.8996C19.0176 20.8623 18.8159 21.7703 18.5735 22.6116C17.6975 22.3931 16.7779 22.1108 15.834 21.7634C16.3992 21.4868 16.9615 21.1854 17.5288 20.8705C18.0977 20.5547 18.6437 20.2332 19.1771 19.8996ZM2.85653 22.1429C3.48076 22.1429 3.97088 22.6141 3.97088 23.2143C3.97088 23.8145 3.48076 24.2857 2.85653 24.2857C2.2323 24.2857 1.74219 23.8145 1.74219 23.2143C1.74219 22.6141 2.2323 22.1429 2.85653 22.1429ZM14.0116 22.5893C15.4269 23.1806 16.8144 23.6428 18.1324 23.9732C18.023 24.2665 17.9033 24.5519 17.7841 24.8214C17.2394 26.0539 16.5981 27.0251 15.9385 27.6562C15.2789 28.2874 14.6357 28.5714 14 28.5714C13.3643 28.5714 12.7211 28.2874 12.0615 27.6562C11.4019 27.0251 10.7606 26.0539 10.2159 24.8214C10.0986 24.5562 9.98703 24.2726 9.87924 23.9844C11.2019 23.6528 12.5916 23.1856 14.0116 22.5893ZM23.2862 22.8683C23.9105 22.8683 24.4006 23.3396 24.4006 23.9397C24.4006 24.5399 23.9105 25.0112 23.2862 25.0112C22.662 25.0112 22.1719 24.5399 22.1719 23.9397C22.1719 23.3396 22.662 22.8683 23.2862 22.8683Z" fill="white"/>
</symbol><symbol id="icon-star" viewBox="0 0 14 14">
<path fill-rule="evenodd" clip-rule="evenodd" d="M7 1L5.33333 5.8H1L4.66667 8.88571L3.33333 13L7 10.2567L10.6667 13L9.33333 8.88571L13 5.8H8.66667L7 1Z" fill="white"/>
</symbol></svg>